<?xml version="1.0" standalone="no"?>
<!DOCTYPE svg PUBLIC "-//W3C//DTD SVG 20010904//EN"
 "http://www.w3.org/TR/2001/REC-SVG-20010904/DTD/svg10.dtd">
<svg version="1.0" xmlns="http://www.w3.org/2000/svg"
 width="260.000000pt" height="260.000000pt" viewBox="0 0 260.000000 260.000000"
 preserveAspectRatio="xMidYMid meet">
<metadata>
Created by potrace 1.11, written by Peter Selinger 2001-2013
</metadata>
<g transform="translate(0.000000,260.000000) scale(0.100000,-0.100000)"
fill="#000000" stroke="none">
<path d="M1410 2386 c0 -2 8 -10 18 -17 15 -13 16 -12 3 4 -13 16 -21 21 -21
13z"/>
<path d="M1558 2383 c7 -3 16 -2 19 1 4 3 -2 6 -13 5 -11 0 -14 -3 -6 -6z"/>
<path d="M1575 2360 c3 -5 8 -10 11 -10 2 0 4 5 4 10 0 6 -5 10 -11 10 -5 0
-7 -4 -4 -10z"/>
<path d="M1455 2341 c11 -5 23 -7 28 -4 4 2 7 -1 7 -6 0 -6 -8 -11 -18 -11
-10 0 -23 -5 -30 -12 -9 -9 -12 -9 -12 1 0 7 -5 9 -10 6 -6 -4 -8 -11 -4 -16
3 -5 0 -17 -7 -25 -11 -13 -9 -14 16 -8 21 5 27 4 23 -7 -3 -8 -16 -13 -29
-12 -22 2 -22 2 -4 -6 33 -15 51 -12 78 13 14 13 29 21 33 17 4 -3 4 3 -1 14
-4 11 -7 27 -7 37 1 16 -27 28 -63 27 l-20 0 20 -8z"/>
<path d="M2590 2290 c0 -22 -24 -27 -36 -8 -5 7 -2 8 7 3 10 -6 11 -5 3 4 -12
13 -47 4 -38 -10 3 -5 0 -9 -5 -9 -6 0 -11 -7 -11 -15 0 -8 -8 -15 -17 -15
-15 0 -15 -2 -4 -9 11 -7 12 -13 4 -23 -6 -7 -9 -29 -8 -48 2 -19 -3 -45 -10
-56 -12 -18 -11 -25 2 -43 10 -15 12 -26 5 -34 -18 -23 -24 -95 -10 -127 14
-32 23 -37 31 -17 3 6 3 -3 0 -20 -3 -20 -1 -33 5 -33 13 0 42 -57 42 -83 0
-11 7 -28 15 -38 9 -9 20 -45 24 -80 6 -42 9 62 10 309 0 204 -1 372 -4 372
-3 0 -5 -9 -5 -20z m-10 -144 c0 -3 -4 -8 -10 -11 -5 -3 -10 -1 -10 4 0 6 5
11 10 11 6 0 10 -2 10 -4z m-44 -74 c6 -4 14 -16 17 -27 7 -19 6 -19 -7 -2 -7
9 -18 17 -25 17 -6 0 -11 5 -11 10 0 12 11 13 26 2z m-39 -84 c-3 -8 -6 -5 -6
6 -1 11 2 17 5 13 3 -3 4 -12 1 -19z"/>
<path d="M1233 2248 c2 -7 12 -12 21 -12 19 2 22 -12 4 -19 -10 -4 -10 -6 0
-6 19 -1 27 30 11 40 -21 13 -41 11 -36 -3z"/>
<path d="M1910 2250 c0 -6 4 -9 9 -5 5 3 16 -1 24 -10 13 -13 16 -13 21 0 3 9
0 15 -8 15 -8 0 -21 3 -30 6 -9 3 -16 1 -16 -6z"/>
<path d="M1180 2210 c0 -11 4 -20 9 -20 6 0 9 9 8 20 -1 11 -5 20 -9 20 -4 0
-8 -9 -8 -20z"/>
<path d="M1464 2218 c-10 -15 17 -18 43 -4 l28 15 -33 -2 c-19 -1 -36 -5 -38
-9z"/>
<path d="M927 2200 c-3 -11 -1 -20 4 -20 5 0 9 9 9 20 0 11 -2 20 -4 20 -2 0
-6 -9 -9 -20z"/>
<path d="M1140 2201 c0 -5 7 -12 16 -15 14 -5 15 -4 4 9 -14 17 -20 19 -20 6z"/>
<path d="M1080 2192 c0 -15 25 -21 41 -11 9 5 9 9 2 9 -6 0 -18 3 -27 6 -9 3
-16 2 -16 -4z"/>
<path d="M1600 2173 c0 -21 3 -24 9 -14 5 8 7 20 4 28 -8 21 -13 15 -13 -14z"/>
<path d="M1782 2163 c-36 -22 -42 -30 -38 -49 4 -14 2 -24 -4 -24 -6 0 -9 -4
-6 -9 3 -5 15 -7 25 -4 17 4 18 8 8 24 -9 14 -9 21 1 31 9 9 16 8 32 -7 11
-10 17 -21 14 -26 -2 -5 7 -11 21 -15 13 -3 23 -10 20 -14 -9 -14 8 -18 33 -9
13 5 20 14 17 20 -4 6 -13 8 -21 5 -15 -6 -19 14 -5 30 13 14 -16 74 -37 74
-9 -1 -36 -13 -60 -27z"/>
<path d="M1172 2105 c-12 -25 -36 -33 -47 -15 -11 18 -23 10 -17 -12 4 -18 2
-20 -17 -15 -16 4 -21 2 -18 -7 3 -8 -5 -18 -19 -25 -35 -16 -31 -41 7 -41 18
0 28 4 24 10 -4 7 2 9 19 4 20 -5 26 -2 26 10 0 9 16 32 36 51 26 25 33 39 26
50 -7 13 -10 12 -20 -10z"/>
<path d="M1681 2101 c-7 -5 -21 -7 -30 -4 -9 2 -25 -5 -35 -16 -17 -19 -17
-20 1 -38 11 -11 25 -17 31 -15 7 2 12 -6 12 -17 0 -15 -6 -21 -24 -21 -13 0
-29 -7 -36 -15 -10 -12 -4 -15 39 -21 52 -7 57 -18 15 -34 -25 -10 -24 -40 2
-40 8 0 14 -4 14 -9 0 -21 -22 -21 -57 0 -20 13 -31 25 -25 27 17 5 15 22 -3
22 -8 0 -15 5 -15 11 0 15 -26 39 -43 39 -8 0 -22 9 -32 20 -10 11 -23 20 -29
20 -6 -1 2 -11 18 -25 26 -21 28 -26 16 -40 -13 -15 -12 -19 7 -35 l21 -17
-23 -28 c-22 -28 -23 -29 -48 -12 -14 9 -33 14 -41 11 -10 -4 -16 -1 -16 9 0
8 -5 17 -12 19 -17 6 -79 -17 -89 -33 -8 -12 -11 -12 -19 1 -14 21 -12 30 5
30 19 0 19 9 -2 32 -9 11 -11 18 -5 18 7 0 12 7 12 15 0 8 -7 15 -15 15 -8 0
-15 -8 -15 -19 0 -21 -46 -44 -76 -39 -13 2 -19 -3 -18 -14 2 -20 -16 -24 -33
-7 -7 7 -17 7 -29 1 -11 -6 -40 -16 -66 -22 -62 -16 -76 -33 -49 -57 12 -9 21
-23 21 -29 0 -15 47 -11 63 5 8 8 15 7 28 -5 26 -24 13 -51 -27 -56 -19 -2
-34 0 -34 5 0 4 -4 6 -10 2 -5 -3 -7 -12 -4 -19 4 -10 -2 -12 -19 -9 -22 4
-23 2 -21 -31 3 -34 1 -36 -27 -36 -18 0 -28 4 -24 10 10 16 -26 25 -36 9 -8
-12 -10 -12 -19 1 -7 11 -4 17 13 24 12 6 23 10 24 11 9 4 -23 75 -33 75 -8 0
-11 -6 -8 -14 4 -9 -5 -15 -28 -19 -18 -2 -35 -1 -38 3 -9 14 -69 4 -90 -15
-11 -10 -20 -30 -20 -44 l0 -26 20 30 20 30 0 -37 c0 -21 5 -38 10 -38 6 0 10
-4 10 -10 0 -16 -27 -12 -34 5 -7 18 -42 20 -50 3 -3 -7 -3 -3 0 9 7 29 -12
63 -34 63 -10 0 -23 5 -29 11 -14 14 -53 2 -53 -17 0 -8 -7 -14 -15 -14 -9 0
-12 -6 -9 -15 4 -8 1 -15 -5 -15 -6 0 -11 -11 -11 -25 0 -14 4 -25 10 -25 13
0 42 -58 35 -70 -3 -5 -19 -7 -35 -3 -23 4 -30 2 -30 -10 0 -27 12 -47 27 -47
11 0 14 -7 10 -21 -5 -18 -2 -20 19 -16 14 2 24 -1 24 -7 0 -6 3 -22 6 -36 5
-25 5 -25 -17 3 -17 22 -24 25 -30 15 -12 -19 -11 -40 2 -32 6 3 22 1 35 -6
18 -10 21 -17 14 -31 -8 -14 -5 -19 20 -24 17 -4 28 -10 25 -15 -3 -5 1 -11 7
-13 7 -3 4 -6 -7 -6 -15 -1 -16 -4 -7 -10 7 -4 15 -25 18 -45 5 -39 22 -63 58
-81 21 -11 26 -25 46 -133 11 -65 35 -127 58 -150 6 -7 12 -18 12 -24 0 -6 3
-9 6 -5 3 3 -1 21 -10 39 -24 50 -34 155 -31 313 3 146 5 162 24 208 6 16 11
37 11 47 0 10 10 20 24 24 13 3 31 17 40 31 19 29 42 32 74 9 17 -11 37 -14
84 -10 71 6 77 10 60 36 -16 26 -16 27 9 33 13 4 28 -1 38 -10 15 -16 16 -13
21 28 4 34 9 45 25 47 11 2 35 10 53 18 31 14 37 14 78 -5 24 -12 44 -28 44
-36 0 -12 31 -37 50 -40 3 -1 22 -9 44 -18 48 -21 75 -22 82 -2 4 8 17 15 30
15 13 0 24 4 24 10 0 5 16 12 35 16 24 4 35 12 35 24 0 18 33 29 89 31 22 0
23 2 7 8 -16 6 -11 12 31 39 27 18 56 32 64 32 10 1 10 4 -3 14 -10 7 -18 18
-18 23 0 14 63 23 72 10 12 -20 38 20 32 50 -5 25 -1 31 23 43 22 11 24 14 11
17 -12 3 -18 14 -18 33 0 33 -15 47 -34 31 -14 -12 -67 21 -93 58 -16 24 -33
27 -33 7 0 -8 -7 -17 -16 -20 -10 -4 -13 -13 -9 -25 3 -11 1 -22 -5 -26 -5 -3
-10 -1 -10 4 0 6 -8 11 -19 11 -10 0 -26 11 -35 25 -16 24 -16 25 9 25 15 0
25 6 25 15 0 9 -6 12 -15 9 -8 -4 -15 -1 -15 5 0 6 -10 11 -22 11 -21 1 -21 2
5 16 16 8 27 20 24 27 -5 15 -19 18 -36 8z m187 -199 c0 -13 6 -28 13 -33 8
-5 9 -9 3 -9 -15 0 -36 25 -27 33 3 4 -2 9 -11 13 -22 8 -20 23 3 21 13 -1 19
-9 19 -25z m32 -8 c0 -8 -5 -12 -10 -9 -6 4 -8 11 -5 16 9 14 15 11 15 -7z
m-700 -4 c0 -5 -4 -10 -10 -10 -5 0 -10 5 -10 10 0 6 5 10 10 10 6 0 10 -4 10
-10z m547 -56 c-3 -3 -12 -4 -19 -1 -8 3 -5 6 6 6 11 1 17 -2 13 -5z m-617
-14 c0 -5 -7 -10 -15 -10 -8 0 -15 5 -15 10 0 6 7 10 15 10 8 0 15 -4 15 -10z
m780 0 c0 -5 -9 -10 -20 -10 -11 0 -20 5 -20 10 0 6 9 10 20 10 11 0 20 -4 20
-10z m-1263 -146 c-3 -3 -12 -4 -19 -1 -8 3 -5 6 6 6 11 1 17 -2 13 -5z"/>
<path d="M1030 2050 c0 -5 4 -10 9 -10 6 0 13 5 16 10 3 6 -1 10 -9 10 -9 0
-16 -4 -16 -10z"/>
<path d="M1252 2046 c7 -8 16 -12 21 -9 11 7 -2 23 -19 23 -12 0 -12 -2 -2
-14z"/>
<path d="M2455 2040 c-3 -5 1 -10 9 -10 9 0 16 5 16 10 0 6 -4 10 -9 10 -6 0
-13 -4 -16 -10z"/>
<path d="M1148 2023 c6 -2 18 -2 25 0 6 3 1 5 -13 5 -14 0 -19 -2 -12 -5z"/>
<path d="M1580 2005 c0 -9 5 -15 11 -13 6 2 11 8 11 13 0 5 -5 11 -11 13 -6 2
-11 -4 -11 -13z"/>
<path d="M865 1960 c3 -5 8 -10 11 -10 2 0 4 5 4 10 0 6 -5 10 -11 10 -5 0 -7
-4 -4 -10z"/>
<path d="M1345 1961 c-3 -5 -1 -12 5 -16 5 -3 10 1 10 9 0 18 -6 21 -15 7z"/>
<path d="M2114 1896 c-10 -22 -9 -23 15 -17 31 9 42 41 14 41 -10 0 -23 -11
-29 -24z"/>
<path d="M737 1893 c-4 -3 -7 -11 -7 -17 0 -6 5 -5 12 2 6 6 9 14 7 17 -3 3
-9 2 -12 -2z"/>
<path d="M2065 1870 c-3 -6 1 -7 9 -4 18 7 21 14 7 14 -6 0 -13 -4 -16 -10z"/>
<path d="M2369 1857 c-9 -7 -16 -23 -15 -37 1 -19 8 -26 33 -31 18 -3 30 -3
28 2 -3 4 -1 10 5 14 14 8 13 35 -1 35 -7 0 -17 7 -23 15 -9 11 -14 12 -27 2z"/>
<path d="M730 1849 c0 -5 5 -7 10 -4 6 3 10 8 10 11 0 2 -4 4 -10 4 -5 0 -10
-5 -10 -11z"/>
<path d="M845 1820 c4 -6 11 -8 16 -5 14 9 11 15 -7 15 -8 0 -12 -5 -9 -10z"/>
<path d="M2115 1800 c3 -5 8 -10 11 -10 2 0 4 5 4 10 0 6 -5 10 -11 10 -5 0
-7 -4 -4 -10z"/>
<path d="M2300 1753 c-8 -3 -20 -12 -27 -20 -8 -10 -17 -12 -30 -5 -10 5 -35
8 -55 7 -21 -1 -38 2 -38 7 0 4 -4 8 -10 8 -5 0 -10 -7 -10 -15 0 -8 9 -15 20
-15 11 0 20 -4 20 -9 0 -5 9 -13 20 -16 15 -5 19 -12 14 -31 -4 -13 -1 -31 6
-39 7 -8 15 -44 17 -80 3 -35 9 -62 13 -60 4 3 10 -13 14 -35 3 -22 10 -40 15
-40 4 0 20 -41 36 -92 56 -189 57 -196 49 -308 -4 -58 -7 -141 -8 -185 -1 -56
-7 -92 -20 -120 -14 -29 -20 -35 -23 -22 -3 9 -18 24 -34 32 -27 14 -30 14
-45 -3 -20 -24 -53 -11 -77 30 -11 19 -43 40 -102 68 -47 22 -88 40 -90 40
-14 0 -85 54 -85 65 0 14 -47 41 -56 32 -4 -4 4 -27 17 -52 19 -35 22 -49 13
-62 -14 -22 -71 -52 -102 -53 -13 0 -37 -15 -56 -35 -17 -20 -41 -37 -53 -38
-22 -1 -101 22 -119 35 -14 10 -99 -5 -118 -21 -9 -7 -48 -13 -91 -13 -63 -1
-79 -4 -88 -20 -13 -20 -37 -25 -37 -7 0 8 -4 8 -13 0 -10 -8 -17 -7 -25 1 -9
9 -15 7 -27 -8 -26 -35 -18 -72 24 -112 37 -35 39 -41 34 -79 -5 -38 -8 -42
-42 -49 -20 -5 -41 -8 -48 -7 -16 1 -10 -43 10 -65 21 -23 49 -101 41 -114
-10 -15 -12 -62 -4 -78 4 -8 10 -30 13 -47 7 -36 -5 -43 -29 -18 -8 8 -22 11
-30 8 -12 -4 -8 -10 16 -21 20 -10 27 -18 19 -22 -13 -9 -4 -30 13 -30 7 0 21
-9 33 -20 20 -19 33 -20 136 -18 l114 3 -54 34 c-29 19 -71 50 -93 68 -22 18
-49 33 -59 33 -15 0 -18 5 -15 25 3 14 2 25 -2 25 -4 0 -8 14 -9 30 -1 17 -9
40 -18 52 -15 22 -21 58 -9 58 7 0 119 -91 159 -129 50 -47 147 -109 179 -115
20 -4 36 -12 36 -19 0 -8 3 -8 9 1 5 9 37 16 85 19 78 5 98 -5 49 -24 l-28
-10 25 -6 c14 -3 37 -8 52 -11 15 -3 33 -13 42 -21 11 -11 38 -15 105 -15 82
0 91 2 102 21 9 18 17 21 51 16 47 -6 58 -15 38 -27 -10 -6 28 -10 107 -10
115 0 123 1 152 25 30 26 107 174 118 227 9 45 24 32 17 -14 -12 -89 -35 -142
-82 -190 l-46 -48 137 0 137 0 -2 223 c-2 142 -7 221 -13 219 -5 -2 -9 -12 -7
-23 1 -16 -2 -19 -18 -14 -12 4 -20 2 -20 -5 0 -6 4 -9 9 -5 17 10 23 -15 7
-30 -19 -19 -24 -19 -22 3 1 11 -6 17 -19 17 -11 0 -19 -6 -18 -12 2 -7 -4
-13 -12 -13 -8 0 -15 3 -16 8 0 4 -3 19 -5 33 -4 23 1 28 38 42 24 9 54 17 67
19 14 2 26 8 28 15 3 8 -14 13 -54 15 l-58 3 -18 75 c-18 74 -18 75 2 116 30
58 27 94 -9 129 -24 23 -32 26 -45 15 -26 -22 -48 -5 -40 32 4 18 10 37 13 43
9 15 10 99 1 111 -13 17 2 54 22 54 25 0 32 16 35 73 2 36 -1 46 -9 38 -23
-23 -34 -11 -36 37 -1 55 14 109 39 137 22 25 36 110 20 120 -17 11 -32 57
-21 64 6 4 4 32 -5 75 -10 49 -11 72 -4 82 8 9 7 15 -6 22 -9 5 -15 16 -12 24
5 12 -5 15 -45 16 -29 0 -59 -2 -67 -5z m-35 -53 c-3 -5 -10 -10 -16 -10 -5 0
-9 5 -9 10 0 6 7 10 16 10 8 0 12 -4 9 -10z m-901 -1035 c21 -11 67 -16 167
-18 125 -2 162 -8 127 -19 -7 -3 -8 -10 -3 -17 15 -25 122 -5 196 36 12 7 18
-39 8 -64 -7 -18 -14 -23 -28 -18 -12 3 -21 0 -25 -10 -3 -8 -16 -15 -30 -15
-13 0 -26 -7 -30 -15 -4 -11 2 -15 25 -15 17 0 39 5 50 10 13 8 19 7 19 -1 0
-16 -42 -48 -63 -49 -44 0 -22 -60 23 -60 12 0 19 -4 15 -10 -3 -5 -13 -6 -22
-3 -10 4 -14 2 -9 -5 4 -6 -1 -11 -11 -11 -59 1 -213 -27 -227 -42 -6 -5 -2
-17 10 -30 16 -18 27 -20 79 -17 56 5 105 -6 105 -23 0 -9 -26 -19 -51 -19
-10 0 -19 -4 -19 -8 0 -5 -28 -14 -62 -20 -36 -7 -66 -18 -71 -27 -4 -8 -12
-13 -18 -10 -5 4 -9 -1 -9 -9 0 -18 -16 -21 -25 -6 -3 6 -15 10 -26 10 -10 0
-19 7 -19 15 0 9 -9 15 -23 15 -13 0 -33 9 -45 21 -12 11 -26 18 -31 15 -9 -6
-88 48 -108 74 -17 21 -16 47 3 58 14 8 14 10 -1 25 -12 13 -17 40 -20 105 -2
48 0 92 5 97 5 6 8 15 8 20 0 10 3 12 62 38 44 20 40 20 74 2z m536 -220 c0
-13 -42 -45 -57 -45 -13 1 -10 5 10 16 15 8 27 19 27 24 0 6 5 10 10 10 6 0
10 -2 10 -5z m390 -144 c0 -11 -5 -23 -11 -27 -16 -10 -29 17 -16 32 17 19 27
17 27 -5z m17 -52 c8 -8 7 -18 -3 -37 -12 -24 -11 -29 6 -47 11 -12 17 -25 13
-29 -5 -4 -8 -13 -8 -19 0 -7 -8 -11 -18 -11 -9 1 -17 -4 -17 -12 0 -8 -6 -14
-14 -14 -8 0 -16 -5 -18 -11 -3 -8 -15 -9 -38 -4 -30 7 -32 9 -17 20 23 17 21
24 -5 19 -13 -2 -17 -2 -10 2 17 8 15 27 -3 21 -8 -4 -17 -1 -21 5 -5 7 3 9
24 6 29 -4 31 -3 28 24 -2 15 1 25 5 22 5 -3 9 -2 10 3 4 48 23 73 53 73 12 0
27 -5 33 -11z m-140 -85 c-3 -3 -12 -4 -19 -1 -8 3 -5 6 6 6 11 1 17 -2 13 -5z
m-49 -110 c28 -8 29 -24 1 -24 -11 0 -18 4 -14 9 3 5 -5 12 -17 14 -13 2 -16
5 -8 6 8 0 25 -2 38 -5z"/>
<path d="M1232 599 c6 -17 81 -57 114 -61 22 -2 28 1 25 12 -2 8 -4 22 -4 30
0 23 -17 30 -80 30 -39 0 -57 -4 -55 -11z"/>
<path d="M1738 413 c7 -3 16 -2 19 1 4 3 -2 6 -13 5 -11 0 -14 -3 -6 -6z"/>
<path d="M940 1700 c-8 -5 -12 -11 -10 -14 3 -2 14 2 24 10 22 15 10 19 -14 4z"/>
<path d="M2003 1381 c4 -16 0 -19 -24 -19 -21 1 -26 4 -19 13 8 10 0 10 -37 2
-27 -6 -50 -14 -53 -17 -3 -3 -17 -7 -31 -8 -30 -2 -108 -44 -133 -71 -26 -28
-56 -92 -62 -131 -5 -33 -3 -37 38 -64 45 -31 148 -50 148 -28 0 8 21 9 65 5
41 -4 87 -1 121 7 48 12 54 16 49 34 -5 15 -4 17 3 7 7 -10 14 -11 28 -3 18
10 17 11 -6 21 -22 8 -18 10 27 10 32 1 57 7 67 16 8 8 19 15 25 15 6 0 11 10
11 21 0 17 -3 19 -14 10 -10 -9 -15 -8 -19 4 -4 8 -13 12 -22 9 -8 -4 -26 1
-38 9 -24 16 -197 41 -244 35 -31 -4 -42 16 -16 27 26 10 203 15 203 5 0 -5
19 -11 42 -15 33 -6 44 -4 54 10 16 21 7 45 -16 45 -10 0 -20 7 -23 14 -7 18
-51 41 -96 50 -29 5 -33 4 -28 -13z m-143 -221 c0 -26 -9 -28 -50 -14 -13 4
-13 6 0 14 20 13 50 13 50 0z"/>
<path d="M1107 1283 c-3 -2 -25 -6 -49 -8 -60 -6 -98 -21 -98 -40 0 -13 24
-15 168 -14 103 0 180 5 200 13 32 11 33 12 15 28 -14 13 -44 18 -125 21 -59
3 -109 3 -111 0z"/>
<path d="M1183 1160 c-3 -11 -10 -20 -17 -21 -20 0 -141 -64 -141 -74 0 -13
30 -18 60 -11 16 4 22 11 19 20 -3 8 3 19 15 25 25 14 32 13 55 -4 15 -12 17
-17 7 -29 -11 -12 -8 -13 16 -7 15 4 45 4 67 -1 74 -17 95 -16 112 3 10 11 22
19 28 19 21 0 16 42 -5 47 -10 3 -19 10 -19 15 0 18 -70 38 -131 38 -52 0 -62
-3 -66 -20z"/>
<path d="M1145 1160 c-16 -7 -17 -9 -3 -9 9 -1 20 4 23 9 7 11 7 11 -20 0z"/>
<path d="M1430 1111 c0 -6 5 -13 10 -16 6 -3 10 1 10 9 0 9 -4 16 -10 16 -5 0
-10 -4 -10 -9z"/>
<path d="M2528 1065 c-10 -19 -13 -35 -8 -35 6 0 10 -4 10 -10 0 -5 -11 -10
-24 -10 -20 0 -36 -16 -36 -36 0 -6 75 -38 110 -48 23 -6 23 -6 8 7 -10 8 -14
18 -10 22 4 5 -1 5 -10 2 -12 -4 -18 -1 -18 7 0 8 -6 17 -12 19 -9 4 -10 8 -2
14 12 9 34 47 34 60 0 4 -5 1 -11 -7 -8 -12 -9 -7 -6 18 5 41 -4 40 -25 -3z"/>
<path d="M835 800 c3 -19 10 -39 15 -44 15 -15 12 14 -6 49 l-14 30 5 -35z"/>
<path d="M836 725 c-11 -8 -29 -15 -41 -15 -34 0 -157 -64 -197 -103 -56 -55
-89 -111 -82 -144 3 -15 -1 -43 -9 -62 -9 -22 -12 -42 -7 -55 5 -12 11 -34 15
-50 10 -47 17 -22 22 81 5 88 8 100 30 121 l25 23 15 -28 c20 -38 21 -38 41
-20 19 18 235 127 251 127 6 0 6 11 1 28 -5 15 -14 46 -20 70 -12 46 -16 48
-44 27z"/>
<path d="M891 459 c-44 -43 -61 -66 -58 -79 6 -22 -10 -30 -38 -19 -11 4 -39
8 -62 8 -39 1 -43 3 -51 33 -4 18 -16 34 -25 36 -13 3 -17 -4 -17 -32 0 -55
15 -81 63 -110 44 -25 73 -26 89 -3 3 6 16 11 29 12 16 1 31 15 48 47 49 87
74 110 119 112 38 1 39 1 18 15 -11 8 -25 21 -29 28 -13 21 -20 17 -86 -48z"/>
<path d="M1062 250 c27 -27 51 -50 53 -50 3 0 -8 18 -23 39 -22 32 -58 61 -76
61 -1 0 19 -22 46 -50z"/>
<path d="M540 154 c0 -11 7 -29 15 -40 13 -17 14 -16 5 15 -11 41 -20 51 -20
25z"/>
<path d="M791 111 c-6 -11 -11 -27 -11 -35 0 -9 -6 -16 -14 -16 -8 0 -17 -6
-19 -12 -4 -10 -8 -10 -15 1 -14 19 -38 7 -44 -21 -4 -22 -1 -23 43 -23 58 0
66 7 78 68 9 50 -1 71 -18 38z"/>
<path d="M706 85 c-3 -8 -1 -15 4 -15 6 0 10 7 10 15 0 8 -2 15 -4 15 -2 0 -6
-7 -10 -15z"/>
<path d="M576 60 c7 -28 12 -35 18 -29 2 2 -2 15 -10 29 l-15 25 7 -25z"/>
<path d="M1560 49 c0 -5 5 -7 10 -4 6 3 10 8 10 11 0 2 -4 4 -10 4 -5 0 -10
-5 -10 -11z"/>
<path d="M448 33 c6 -2 18 -2 25 0 6 3 1 5 -13 5 -14 0 -19 -2 -12 -5z"/>
<path d="M1610 30 c-8 -5 -10 -10 -5 -10 6 0 21 -3 35 -7 22 -6 24 -5 11 10
-16 20 -20 20 -41 7z"/>
</g>
</svg>
